<?xml version="1.0" encoding="UTF-8" standalone="no"?>
<svg width="376px" height="142px" viewBox="0 0 376 142" version="1.1" xmlns="http://www.w3.org/2000/svg" xmlns:xlink="http://www.w3.org/1999/xlink">
    <!-- Generator: Sketch 42 (36781) - http://www.bohemiancoding.com/sketch -->
    <title>Group 4</title>
    <desc>Created with Sketch.</desc>
    <defs></defs>
    <g id="Page-1" stroke="none" stroke-width="1" fill="none" fill-rule="evenodd" opacity="0.25">
        <g id="Group-4">
            <ellipse id="Oval-5-Copy-5" fill="#FFFFFF" cx="40.4088769" cy="66.1530878" rx="3.85819841" ry="3.85819841"></ellipse>
            <circle id="Oval-5-Copy-2" fill="#FFFFFF" cx="70.563511" cy="116.408423" r="3.85819841"></circle>
            <ellipse id="Oval-5-Copy-14" fill="#FFFFFF" cx="110.884354" cy="110.174678" rx="3.85819841" ry="3.85819841"></ellipse>
            <ellipse id="Oval-5-Copy-3" fill="#FFFFFF" cx="81.5823145" cy="85.7359527" rx="3.85819841" ry="3.85819841"></ellipse>
            <ellipse id="Oval-5-Copy-4" fill="#FFFFFF" cx="101.741781" cy="49.6790989" rx="3.85819841" ry="3.85819841"></ellipse>
            <circle id="Oval-5-Copy-16" fill="#FFFFFF" cx="56.819114" cy="48.9404401" r="3.85819841"></circle>
            <ellipse id="Oval-5-Copy-20" fill="#FFFFFF" cx="329.616701" cy="35.6574087" rx="3.85819841" ry="3.85819841"></ellipse>
            <circle id="Oval-5-Copy-21" fill="#FFFFFF" cx="156.159172" cy="100.218054" r="3.85819841"></circle>
            <circle id="Oval-5-Copy-27" fill="#FFFFFF" cx="371.26415" cy="107.312" r="3.85819841"></circle>
            <circle id="Oval-5-Copy-22" fill="#FFFFFF" cx="114.716027" cy="125.549087" r="3.85819841"></circle>
            <ellipse id="Oval-5-Copy-24" fill="#FFFFFF" cx="234.357999" cy="36.6548181" rx="3.85819841" ry="3.85819841"></ellipse>
            <ellipse id="Oval-5-Copy-25" fill="#FFFFFF" cx="109.912836" cy="29.2867731" rx="3.85819841" ry="3.85819841"></ellipse>
            <ellipse id="Oval-5-Copy-17" fill="#FFFFFF" cx="63.3754262" cy="84.9285815" rx="3.85819841" ry="3.85819841"></ellipse>
            <ellipse id="Oval-5-Copy-18" fill="#FFFFFF" cx="35.8894951" cy="106.681795" rx="3.85819841" ry="3.85819841"></ellipse>
            <ellipse id="Oval-5-Copy-23" fill="#FFFFFF" cx="4.47073835" cy="78.2045947" rx="3.85819841" ry="3.85819841"></ellipse>
            <ellipse id="Oval-5-Copy-28" fill="#FFFFFF" cx="7.51066751" cy="19.6827225" rx="3.85819841" ry="3.85819841"></ellipse>
            <ellipse id="Oval-5-Copy-29" fill="#FFFFFF" cx="90.1240248" cy="4.13475072" rx="3.85819841" ry="3.85819841"></ellipse>
            <ellipse id="Oval-5-Copy-12" fill="#FFFFFF" cx="39.8757711" cy="32.7338473" rx="3.85819841" ry="3.85819841"></ellipse>
            <ellipse id="Oval-5-Copy-9" fill="#FFFFFF" cx="135.231462" cy="111.793238" rx="3.85819841" ry="3.85819841"></ellipse>
            <ellipse id="Oval-5-Copy-6" fill="#FFFFFF" cx="135.199015" cy="85.0431022" rx="3.85819841" ry="3.85819841"></ellipse>
            <ellipse id="Oval-5-Copy-8" fill="#FFFFFF" cx="184.16983" cy="93.4356304" rx="3.85819841" ry="3.85819841"></ellipse>
            <circle id="Oval-5-Copy-26" fill="#FFFFFF" cx="287.866064" cy="86.1831887" r="3.85819841"></circle>
            <circle id="Oval-5-Copy-13" fill="#FFFFFF" cx="184.16983" cy="50.3945314" r="3.85819841"></circle>
            <ellipse id="Oval-5-Copy-15" fill="#FFFFFF" cx="141.293426" cy="23.93102" rx="3.85819841" ry="3.85819841"></ellipse>
            <ellipse id="Oval-5-Copy-10" fill="#FFFFFF" cx="141.478568" cy="138.029938" rx="3.85819841" ry="3.85819841"></ellipse>
            <ellipse id="Oval-5-Copy-7" fill="#FFFFFF" cx="153.327647" cy="47.1539167" rx="3.85819841" ry="3.85819841"></ellipse>
            <ellipse id="Oval-5-Copy-19" fill="#FFFFFF" cx="136.582807" cy="38.9046063" rx="3.85819841" ry="3.85819841"></ellipse>
            <ellipse id="Oval-5-Copy-11" fill="#FFFFFF" cx="156.221204" cy="73.8868739" rx="3.85819841" ry="3.85819841"></ellipse>
            <path d="M71.1598662,116.442094 L110.295419,110.025115" id="Line-Copy-15" stroke="#FFFFFF" stroke-linecap="square"></path>
            <path d="M155.981558,100.985612 L134.72651,111.979603" id="Line-Copy-25" stroke="#FFFFFF" stroke-linecap="square"></path>
            <path d="M135.703753,112.468224 L141.759991,137.942408" id="Line-Copy-26" stroke="#FFFFFF" stroke-linecap="square"></path>
            <path d="M71.0682496,116.226413 L87.818816,137.876558" id="Line-Copy-16" stroke="#FFFFFF" stroke-linecap="square" fill="#FFFFFF"></path>
            <path d="M71.0835191,116.664455 L80.4894889,86.5712685" id="Line-Copy-17" stroke="#FFFFFF" stroke-linecap="square"></path>
            <path d="M81.8255641,85.7772581 L102.47747,49.4360111" id="Line-Copy-18" stroke="#FFFFFF" stroke-linecap="square"></path>
            <path d="M81.4724585,85.7925275 L63.8763474,84.1281595" id="Line-Copy-33" stroke="#FFFFFF" stroke-linecap="square"></path>
            <path d="M63.5747761,84.9612978 L36.0249044,106.604763" id="Line-Copy-36" stroke="#FFFFFF" stroke-linecap="square"></path>
            <path d="M41.3997442,66.0491526 L101.676779,49.5591209" id="Line-Copy-19" stroke="#FFFFFF" stroke-linecap="square"></path>
            <path d="M102.47747,49.4360111 L140.966935,23.9274714" id="Line-Copy-21" stroke="#FFFFFF" stroke-linecap="square"></path>
            <path d="M101.500227,49.4360111 L153.294138,47.4815239" id="Line-Copy-22" stroke="#FFFFFF" stroke-linecap="square"></path>
            <path d="M156.47018,74.1114124 L134.411578,84.2321825" id="Line-Copy-23" stroke="#FFFFFF" stroke-linecap="square"></path>
            <path d="M101.669145,49.8979114 L155.737247,73.8671015" id="Line-Copy-24" stroke="#FFFFFF" stroke-linecap="square"></path>
            <path d="M184.053454,49.7977058 L156.225869,73.3784797" id="Line-Copy-27" stroke="#FFFFFF" stroke-linecap="square"></path>
            <path d="M235.104005,36.1510503 L184.248669,50.0745626" id="Line-Copy-29" stroke="#FFFFFF" stroke-linecap="square"></path>
            <path d="M154.271382,46.9929021 L157.180209,72.7180768" id="Line-Copy-39" stroke="#FFFFFF" stroke-linecap="square" fill="#FFFFFF"></path>
            <path d="M83.9098415,85.5940249 L134.526098,111.746744" id="Line-Copy-40" stroke="#FFFFFF" stroke-linecap="square"></path>
            <path d="M5.24173045,79.2419414 L34.4311574,105.883282" id="Line-Copy-41" stroke="#FFFFFF" stroke-linecap="square"></path>
            <path d="M59.4787511,50.4132547 L81.7110434,84.8610922" id="Line-Copy-44" stroke="#FFFFFF" stroke-linecap="square"></path>
            <path d="M234.126762,36.1510503 L142.32496,23.6468956" id="Line-Copy-37" stroke="#FFFFFF" stroke-linecap="square"></path>
            <path d="M289.829648,85.9904748 L234.708482,37.2068841" id="Line-Copy-38" stroke="#FFFFFF" stroke-linecap="square"></path>
            <path d="M287.461775,85.9904748 L328.919393,37.128294" id="Line-Copy-42" stroke="#FFFFFF" stroke-linecap="square"></path>
            <path d="M287.461775,87.2342061 L370.940868,106.512591" id="Line-Copy-43" stroke="#FFFFFF" stroke-linecap="square"></path>
            <path d="M184.077312,93.4119738 L157.203113,74.3557233" id="Line-Copy-28" stroke="#FFFFFF" stroke-linecap="square"></path>
            <path d="M181.995795,93.4119738 L288.852404,86.9677184" id="Line-Copy-34" stroke="#FFFFFF" stroke-linecap="square"></path>
            <path d="M39.6583928,65.5605308 L39.6583928,32.7388878" id="Line-Copy-20" stroke="#FFFFFF" stroke-linecap="square"></path>
            <path d="M57.2360534,49.0790881 L40.9111224,33.8001133" id="Line-Copy-32" stroke="#FFFFFF" stroke-linecap="square"></path>
            <path d="M39.8918879,32.2264075 L90.261925,4.97142658" id="Line-Copy-30" stroke="#FFFFFF" stroke-linecap="square"></path>
            <path d="M40.1686463,32.2264075 L9.63932673,20.1187026" id="Line-Copy-31" stroke="#FFFFFF" stroke-linecap="square"></path>
            <path d="M87.6012266,138.843304 C87.6012266,138.843304 114.354225,125.159031 115.261802,125.220108 C116.169379,125.281186 141.988079,138.051202 141.988079,138.051202 L157.578168,100.508442 L156.346116,73.7373113" id="Path-17" stroke="#FFFFFF"></path>
            <path d="M156.714491,74.3557233 L136.192375,39.1749531" id="Line" stroke="#FFFFFF" stroke-linecap="square"></path>
            <path d="M57.279953,49.1917002 L109.562486,29.6468279" id="Line" stroke="#FFFFFF" stroke-linecap="square"></path>
        </g>
    </g>
</svg>